<svg xmlns="http://www.w3.org/2000/svg" viewBox="0 0 512 512">
  <defs>
    <linearGradient id="g" x1="0" x2="1" y1="0" y2="1">
      <stop offset="0" stop-color="#FFFFFF"/>
      <stop offset="1" stop-color="#FAFAFF"/>
    </linearGradient>
    <filter id="s" x="-20%" y="-20%" width="140%" height="140%">
      <feDropShadow dx="0" dy="18" stdDeviation="20" flood-color="#111827" flood-opacity=".18"/>
    </filter>
  </defs>
  <rect x="32" y="32" width="448" height="448" rx="104" fill="url(#g)" filter="url(#s)"/>
  <g transform="translate(64 48) scale(3)">

  <path d="M64 16c-18 0-34 7-45 19" stroke="#5B4DFF" stroke-width="8" stroke-linecap="round" fill="none"/>
  <path d="M109 35C98 23 82 16 64 16" stroke="#5B4DFF" stroke-width="8" stroke-linecap="round" fill="none"/>
  <path d="M38 50c7-8 16-12 26-12s19 4 26 12" stroke="#5B4DFF" stroke-width="8" stroke-linecap="round" fill="none"/>
  <path d="M32 52v25c0 19 13 32 32 42 19-10 32-23 32-42V52" stroke="#5B4DFF" stroke-width="8" stroke-linecap="round" stroke-linejoin="round" fill="none"/>
  <circle cx="64" cy="72" r="17" fill="#2B2D42" stroke="none"/>
  <circle cx="70" cy="66" r="5" fill="#FFFFFF" stroke="none" opacity=".95"/>

  </g>
</svg>
